<mxfile host="app.diagrams.net" modified="2024-05-05T15:40:42.072Z" agent="Mozilla/5.0 (Windows NT 10.0; Win64; x64) AppleWebKit/537.36 (KHTML, like Gecko) Chrome/121.0.0.0 Safari/537.36 OPR/107.0.0.0" version="24.3.1" etag="Ya_2oh3_UZwRmGRRxe2a" type="github">
  <diagram name="Trang-1" id="59EVmqoXW4I7JWVFYxdd">
    <mxGraphModel>
      <root>
        <mxCell id="0" />
        <mxCell id="1" parent="0" />
      </root>
    </mxGraphModel>
  </diagram>
</mxfile>
